HIERARCHY
ROOT Hips
{
	OFFSET 0.000000 0.000000 0.000000
	CHANNELS 6 Xposition Yposition Zposition Yrotation Xrotation Zrotation
	JOINT Chest
	{
		OFFSET 0.000000 -0.009281 11.569106
		CHANNELS 3 Yrotation Xrotation Zrotation
		JOINT Chest2
		{
			OFFSET -0.000000 0.016865 9.269641
			CHANNELS 3 Yrotation Xrotation Zrotation
			JOINT Chest3
			{
				OFFSET -0.000000 0.000001 8.374491
				CHANNELS 3 Yrotation Xrotation Zrotation
				JOINT Chest4
				{
					OFFSET -0.000000 0.000001 8.374493
					CHANNELS 3 Yrotation Xrotation Zrotation
					JOINT Neck
					{
						OFFSET -0.000000 0.000002 12.152554
						CHANNELS 3 Yrotation Xrotation Zrotation
						JOINT Head
						{
							OFFSET -0.000000 0.040101 7.802319
							CHANNELS 3 Yrotation Xrotation Zrotation
							End Site
							{
								OFFSET -0.000000 0.020947 14.853096
							}
						}
					}
					JOINT RightCollar
					{
						OFFSET 2.894404 0.000001 6.791374
						CHANNELS 3 Yrotation Xrotation Zrotation
						JOINT RightShoulder
						{
							OFFSET 13.574684 0.000001 0.000000
							CHANNELS 3 Yrotation Xrotation Zrotation
							JOINT RightElbow
							{
								OFFSET 23.923903 0.000002 0.000000
								CHANNELS 3 Yrotation Xrotation Zrotation
								JOINT RightWrist
								{
									OFFSET 19.846718 0.012767 0.000000
									CHANNELS 3 Yrotation Xrotation Zrotation
									End Site
									{
										OFFSET 14.973145 0.000001 0.000000
									}
								}
							}
						}
					}
					JOINT LeftCollar
					{
						OFFSET -2.894404 0.000001 6.791374
						CHANNELS 3 Yrotation Xrotation Zrotation
						JOINT LeftShoulder
						{
							OFFSET -13.574684 -0.000001 0.000000
							CHANNELS 3 Yrotation Xrotation Zrotation
							JOINT LeftElbow
							{
								OFFSET -23.923903 -0.000002 0.000000
								CHANNELS 3 Yrotation Xrotation Zrotation
								JOINT LeftWrist
								{
									OFFSET -19.846718 0.012763 0.000000
									CHANNELS 3 Yrotation Xrotation Zrotation
									End Site
									{
										OFFSET -14.973145 -0.000001 0.000000
									}
								}
							}
						}
					}
				}
			}
		}
	}
	JOINT RightHip
	{
		OFFSET 9.469263 0.004643 0.045487
		CHANNELS 3 Yrotation Xrotation Zrotation
		JOINT RightKnee
		{
			OFFSET 0.000000 0.002661 -40.478676
			CHANNELS 3 Yrotation Xrotation Zrotation
			JOINT RightAnkle
			{
				OFFSET 0.000000 0.049106 -35.224068
				CHANNELS 3 Yrotation Xrotation Zrotation
				JOINT RightToe
				{
					OFFSET -0.000001 12.539529 -6.151390
					CHANNELS 3 Yrotation Xrotation Zrotation
					End Site
					{
						OFFSET -0.000001 5.044994 -1.291870
					}
				}
			}
		}
	}
	JOINT LeftHip
	{
		OFFSET -9.469263 0.004641 0.045487
		CHANNELS 3 Yrotation Xrotation Zrotation
		JOINT LeftKnee
		{
			OFFSET 0.000000 0.002661 -40.478676
			CHANNELS 3 Yrotation Xrotation Zrotation
			JOINT LeftAnkle
			{
				OFFSET 0.000000 0.049106 -35.224068
				CHANNELS 3 Yrotation Xrotation Zrotation
				JOINT LeftToe
				{
					OFFSET -0.000001 12.539529 -6.151390
					CHANNELS 3 Yrotation Xrotation Zrotation
					End Site
					{
						OFFSET -0.000001 5.044994 -1.291870
					}
				}
			}
		}
	}
}
MOTION
Frames: 15
Frame Time: 0.016667
-117.929977 138.002106 79.625046 2.432418 -9.866412 152.609089 -0.844122 -3.334167 4.795190 0.294252 -1.568102 1.889665 0.294252 -1.568103 1.889666 0.225527 -1.175180 1.417916 -5.248800 -19.917621 3.933588 -8.361406 -0.736959 5.558395 11.134510 -5.884911 -1.455747 76.120922 -11.203119 30.177948 9.388285 -10.999755 29.029431 -23.707546 13.156668 27.984625 -5.496761 -1.305788 5.310104 -62.209609 27.733741 24.331934 17.667903 18.075442 18.270920 18.429855 0.534432 -9.271381 -12.119361 -6.713755 -7.405909 1.746645 -51.403358 1.108487 17.851073 -13.263937 9.965021 -25.691589 55.033375 -12.369218 -13.972563 5.446288 2.723528 -3.241751 -5.531355 5.617145 7.452357 -11.846386 2.244836 -0.719753 1.810125 -0.454692 
-118.398674 136.028702 79.508194 1.557259 -10.155246 153.242712 -0.552853 -3.483351 4.497696 0.172302 -1.430269 1.866292 0.172302 -1.430269 1.866290 0.133589 -1.072188 1.400050 -5.996767 -19.921548 4.479889 -9.556776 -0.724318 6.324419 10.912696 -5.436520 -1.554408 77.401534 -10.548755 29.150134 11.661312 -11.603584 29.979001 -20.943081 13.238323 28.687409 -5.660414 -1.632634 5.347247 -60.900774 28.346730 24.387091 17.551547 18.015452 18.038579 16.265307 0.323974 -8.990166 -13.481304 -3.728219 -8.004142 -1.087870 -56.227435 2.740769 20.435759 -18.612218 12.150504 -32.774407 56.690153 -18.770511 -15.217308 4.492488 1.538108 -3.824351 -6.131384 6.433501 8.344992 -9.670058 2.860514 -0.865370 0.922938 -0.686790 
-118.637375 134.247467 79.467087 0.229029 -10.179513 154.064739 -0.692286 -3.253780 4.139672 0.082006 -1.314869 1.801025 0.082005 -1.314869 1.801025 0.065378 -0.985921 1.350885 -6.729913 -19.880654 5.029271 -10.723386 -0.625829 7.098306 10.592379 -4.955811 -1.702650 78.688513 -9.924467 28.031426 13.656488 -12.148742 30.434196 -18.485379 13.180567 28.923064 -6.308239 -1.532412 5.002530 -59.340076 28.951529 24.381608 17.446222 17.748084 17.907356 14.331465 0.937327 -8.662761 -14.442630 0.053917 -8.291442 -5.165176 -60.925574 6.681522 22.040430 -20.401898 11.839984 -32.472915 53.433857 -18.917032 -16.557436 3.572718 0.440329 -4.538408 -6.189530 6.195829 8.804663 -8.111790 3.704161 -0.708533 0.422973 -0.519495 
-118.935165 132.492004 79.496986 -0.670082 -9.972298 154.877149 -0.618886 -3.031804 3.861254 0.045428 -1.254015 1.723390 0.045428 -1.254015 1.723391 0.037607 -0.940391 1.292587 -7.389082 -19.783148 5.506800 -11.776261 -0.423388 7.760392 10.358861 -5.018802 -1.638358 79.841571 -8.950189 27.223722 15.219997 -12.443875 30.691103 -17.018436 13.028804 28.288215 -6.974952 -0.818343 4.786388 -57.853369 29.321001 24.134760 17.199183 16.953904 17.668490 13.228927 1.863292 -8.379574 -14.455590 3.660872 -8.160545 -9.536891 -64.309796 11.359519 22.852322 -20.127205 10.640659 -28.367808 46.349923 -16.082626 -17.518558 2.791969 -0.863029 -4.991816 -6.104489 6.798194 9.258257 -6.961880 3.777741 -0.572565 0.214715 -0.355948 
-119.193504 130.851059 79.566917 -1.272877 -9.600174 155.788788 -0.446865 -2.757958 3.552350 0.060390 -1.196500 1.617466 0.060391 -1.196499 1.617466 0.048458 -0.897221 1.213175 -7.967822 -19.694847 5.946994 -12.693779 -0.238052 8.378812 10.204639 -5.181470 -1.418705 80.832195 -7.795864 26.280946 16.369750 -12.501054 30.597233 -16.469787 13.091931 27.094015 -7.400022 -0.347099 4.760149 -57.213746 29.721056 23.055073 16.751170 16.179615 17.184198 13.163902 2.465652 -8.343188 -13.864660 7.203092 -7.511705 -12.453705 -66.666922 14.697227 22.797580 -18.759991 8.865992 -15.675443 30.681090 -7.158866 -18.250658 2.116554 -2.222087 -5.255127 -6.366045 7.864356 9.794462 -5.646086 3.532297 -0.571127 0.175101 -0.363596 
-119.491425 129.185394 79.629967 -1.655925 -9.297098 156.739714 -0.221022 -2.529334 3.296528 0.100736 -1.086088 1.478021 0.100736 -1.086088 1.478019 0.078177 -0.814328 1.108659 -8.475083 -19.717322 6.374158 -13.486244 -0.256863 9.001727 10.134589 -5.050961 -1.331968 81.510856 -6.633446 24.719462 17.210465 -12.438839 30.093769 -16.306737 13.352528 26.021815 -7.623680 -0.715693 4.763664 -57.699710 30.234041 20.988784 16.111964 15.892322 16.448760 13.777327 2.553762 -8.780739 -12.840371 10.614294 -6.096299 -13.228791 -68.285288 16.038006 21.788129 -16.755427 6.631960 -13.688130 25.364526 -6.325970 -18.960083 1.272805 -3.298881 -5.175357 -6.610990 8.605142 10.263898 -4.339979 3.361433 -0.646436 0.111195 -0.414805 
-119.791321 127.627548 79.660126 -1.885182 -8.856994 158.081436 0.139076 -2.121377 2.768567 0.154930 -0.934396 1.304836 0.154930 -0.934397 1.304836 0.118191 -0.700470 0.978841 -8.928588 -19.863647 6.793034 -14.185336 -0.503759 9.634174 10.088238 -4.765306 -1.404830 81.858301 -5.263781 22.639577 17.823763 -12.409514 29.235518 -16.109949 13.681065 25.498491 -7.898950 -1.172043 4.593126 -58.534783 30.550333 18.868527 15.261139 15.887348 15.505889 14.490941 2.543073 -9.797678 -11.554290 13.909629 -4.140076 -11.715634 -69.015756 15.013413 20.188473 -14.347767 4.227064 -11.457643 21.991819 -5.156325 -19.431610 0.237762 -4.163015 -4.964743 -6.544677 8.474577 10.752856 -3.216849 3.428765 -0.780506 -0.048282 -0.523931 
-120.098518 126.086647 79.675522 -2.186149 -8.536679 159.402285 0.283616 -1.760247 2.432950 0.215632 -0.790357 1.128166 0.215631 -0.790359 1.128164 0.163180 -0.592373 0.846393 -9.298807 -20.049571 7.158745 -14.750391 -0.825648 10.198667 9.958616 -4.463140 -1.705179 81.948828 -3.762307 20.339969 18.289679 -12.301961 28.121291 -15.983514 14.062101 25.489542 -8.448908 -1.249833 4.074259 -59.165045 30.638412 17.025804 14.222313 15.868003 14.438762 14.958753 2.792518 -11.364919 -10.419268 17.129896 -1.198354 -8.435335 -69.054087 11.785479 18.375564 -11.996588 2.004635 -9.030491 20.650575 -3.805614 -19.900868 -0.780941 -4.334316 -4.736053 -6.676422 7.852785 11.047866 -2.112865 3.161207 -0.759457 -0.072777 -0.390373 
-120.443871 124.618141 79.681770 -2.379239 -8.174005 160.891431 0.426198 -1.409509 2.064284 0.274383 -0.665757 0.965397 0.274384 -0.665758 0.965396 0.206837 -0.498886 0.724335 -9.556317 -20.221583 7.452729 -15.132684 -1.125352 10.666610 9.865759 -4.348170 -1.933117 81.709089 -2.081103 18.075874 18.613964 -11.757529 26.802794 -16.096022 14.638513 25.722675 -9.165441 -1.093807 3.333349 -59.710087 30.578931 15.182182 12.990513 15.731765 13.204744 15.041149 3.315088 -13.180144 -9.235396 20.100646 2.056288 -4.043801 -67.966085 6.541934 16.267496 -10.278845 0.280186 -6.419079 20.659065 -2.359241 -20.161527 -1.827101 -4.529737 -4.489768 -6.832051 7.239360 11.250275 -0.940631 2.792453 -0.704139 -0.132710 -0.246159 
-120.832130 123.228699 79.693436 -2.477658 -7.838173 162.492973 0.512070 -1.143227 1.713882 0.321487 -0.566386 0.821585 0.321487 -0.566386 0.821587 0.241874 -0.424359 0.616482 -9.668851 -20.346502 7.661713 -15.276637 -1.343285 11.020823 9.875149 -4.323251 -1.953598 81.213149 -0.379669 15.830070 18.625716 -10.517289 25.254102 -16.396562 15.640959 26.004704 -9.680867 -1.344050 2.636253 -60.845729 30.436566 12.604737 11.506299 15.648826 11.679274 14.818717 3.868824 -14.934070 -8.073423 22.705822 5.257162 -0.403153 -65.762011 0.988709 14.072294 -9.227008 -0.398022 -3.841768 21.443647 -1.085519 -20.284385 -2.859494 -4.791142 -4.179497 -7.067372 6.910607 11.382677 0.224770 2.221210 -0.670014 -0.137169 -0.091524 
-121.256760 121.934586 79.716965 -2.417169 -7.540208 164.169047 0.592322 -0.944930 1.389149 0.355434 -0.494884 0.699633 0.355434 -0.494884 0.699633 0.267140 -0.370758 0.525009 -9.638454 -20.426546 7.792243 -15.183785 -1.483917 11.272333 9.977195 -4.185622 -1.937406 80.578392 1.077662 13.449676 18.135110 -8.627466 23.369067 -16.721659 17.168147 26.296911 -9.887117 -2.240913 2.097803 -62.697339 30.161309 9.124891 9.724285 15.787151 9.760423 14.339661 4.171187 -16.400488 -6.919443 24.708703 8.274201 1.732860 -62.364907 -3.779810 12.128111 -8.725498 -0.197202 -1.502522 22.244526 -0.167782 -20.303682 -3.892142 -5.325105 -3.692144 -7.409079 6.849987 11.485066 1.398545 1.741017 -0.740984 -0.135105 -0.030701 
-121.707329 120.681915 79.757668 -2.216482 -7.448412 165.928340 0.617589 -0.926739 1.073616 0.382039 -0.437792 0.601233 0.382039 -0.437793 0.601233 0.286959 -0.327969 0.451198 -9.485563 -20.488117 7.850104 -14.890086 -1.596106 11.427183 10.146781 -4.067383 -1.932874 79.846981 2.283406 11.065758 17.109431 -6.165216 21.015729 -16.945889 18.988959 26.597552 -10.022967 -3.186757 1.573434 -64.612271 29.611547 5.572494 7.695015 16.070248 7.399201 13.678016 4.214616 -17.511680 -5.878780 25.927337 10.915931 2.619553 -58.098887 -7.362232 10.409886 -8.370297 0.230516 0.568799 21.916696 0.454082 -20.249701 -5.095970 -6.118768 -3.106588 -7.831445 6.735885 11.590126 2.459815 1.632240 -0.879840 -0.078048 -0.027852 
-122.188942 119.461571 79.811501 -1.841984 -7.472285 167.604195 0.682349 -0.983333 0.928325 0.409944 -0.384560 0.514589 0.409945 -0.384560 0.514591 0.307782 -0.288075 0.386201 -9.250007 -20.559470 7.849918 -14.464298 -1.731105 11.501749 10.311861 -4.019846 -1.961454 79.003446 3.108691 8.775316 15.552556 -3.126299 18.081370 -17.000937 20.702722 26.739016 -10.222664 -3.884472 1.055794 -66.215740 28.695124 2.384634 5.477038 16.303887 4.654624 12.715004 3.979757 -18.160498 -4.867808 26.560914 12.864546 2.379554 -52.961232 -9.168252 8.665960 -8.377214 0.456240 2.390612 19.729121 0.818094 -19.972653 -6.360449 -6.889188 -2.542721 -8.372963 6.604449 11.662915 3.587235 1.606872 -1.004652 -0.048402 -0.047350 
-122.688789 118.265633 79.873825 -1.438254 -7.451798 169.482005 0.709852 -0.937885 0.691582 0.438368 -0.335047 0.429483 0.438368 -0.335047 0.429484 0.329010 -0.250977 0.322352 -8.925067 -20.634297 7.791427 -13.894093 -1.877452 11.497002 10.436736 -4.006913 -2.019557 78.205953 3.648155 6.599235 13.205228 -0.008214 14.452588 -16.789466 22.148101 26.446059 -10.419867 -4.535610 0.634591 -67.648045 27.395453 -0.622670 3.182927 16.336213 1.609196 11.403981 3.434219 -18.380857 -4.077340 26.738328 13.390181 1.109937 -47.064877 -8.331302 7.048053 -8.574832 -0.044116 3.775201 15.385956 0.962352 -19.504403 -7.572982 -7.698883 -2.020454 -8.911403 6.487311 11.661895 4.618693 1.368082 -1.070174 0.031974 -0.058430 
-123.207108 117.028648 79.951904 -1.056332 -7.613147 171.560787 0.620794 -1.010948 0.406412 0.452509 -0.296387 0.356443 0.452509 -0.296386 0.356441 0.339554 -0.222026 0.267552 -8.476079 -20.712426 7.644302 -13.125565 -2.036805 11.368010 10.576033 -4.008319 -2.134266 77.604254 4.027969 4.630823 9.883034 2.757389 9.984769 -16.346933 23.045509 25.498245 -10.520576 -5.216233 0.144798 -69.014574 25.797041 -3.539673 1.042843 16.070868 -1.554310 9.812158 2.662943 -18.353748 -3.608522 26.219797 12.879068 -0.176430 -40.759174 -5.675615 5.835745 -8.764528 -1.226049 4.586838 8.948565 0.920495 -18.928507 -8.992483 -8.311572 -1.531511 -9.424378 6.292106 11.600461 5.581815 0.875322 -1.092951 0.185154 -0.061098 
